<?xml version="1.0" encoding="UTF-8"?><svg id="Capa_1" xmlns="http://www.w3.org/2000/svg" viewBox="-2 -2 84 84"><defs><style>.cls-1{fill:none;}.cls-2{fill:#ff40e9;}.cls-3{fill:#bb31d8;}.cls-4{fill:#fff;}.cls-5{fill:#0087ff;}.cls-6{fill:#00d1ff;}.cls-7{fill:#f800c7;}</style></defs><path class="cls-1" d="M461.9,31.7c-7.9,0-13.9,4.9-15.8,11.9h30.5c-1.6-7.9-7.3-11.9-14.7-11.9h0Z"/><path class="cls-1" d="M200.3,33.1c-9.5,0-16.6,6.9-16.6,17.1s7,17,16.6,17,16.2-6.3,16.2-17-7.2-17.1-16.2-17.1Z"/><path class="cls-1" d="M324.3,33.1c-9.5,0-16.6,6.9-16.6,17.1s7,17,16.6,17,16.2-6.3,16.2-17-7.2-17.1-16.2-17.1Z"/><path class="cls-6" d="M73.6,54.6h-12.2c-1.9,0-3.5.8-4.8,2s-2,3-2,4.8v12.2c0,1.4.5,2.6,1.4,3.4s2.1,1.4,3.4,1.4h14.2c1.4,0,2.6-.5,3.4-1.4s1.4-2.1,1.4-3.4v-14.2c0-1.4-.5-2.6-1.4-3.4s-2.1-1.4-3.4-1.4Z"/><path class="cls-2" d="M4.8,24h12.2c1.9,0,3.5-.8,4.8-2s2-3,2-4.8V5c0-1.4-.5-2.6-1.4-3.4s-2.1-1.4-3.4-1.4H4.8C3.4.2,2.2.7,1.4,1.6S0,3.7,0,5v14.2C0,20.6.5,21.8,1.4,22.6s2.1,1.4,3.4,1.4h0Z"/><path class="cls-3" d="M73.5.1h-14.2c-1.4,0-2.6.5-3.4,1.4s-1.4,2.1-1.4,3.4v12.6c0,1.3-.3,2.6-.7,3.7-.5,1.2-1.2,2.3-2.1,3.2h0v.2c-.9.9-2,1.6-3.2,2.1s-2.5.7-3.7.7h-10.6c-1.9,0-3.5.8-4.8,2s-2,3-2,4.8v10.6c0,1.3-.3,2.6-.7,3.7-.5,1.2-1.2,2.3-2.1,3.2h0v.2c-.9.9-2,1.6-3.2,2.1s-2.5.7-3.7.7H5.1c-1.4,0-2.6.5-3.4,1.4s-1.4,2.1-1.4,3.4v14.2c0,1.4.5,2.6,1.4,3.4s2.1,1.4,3.4,1.4h14.2c1.4,0,2.6-.5,3.4-1.4s1.4-2.1,1.4-3.4v-12.6c0-1.3.3-2.6.7-3.7.5-1.2,1.2-2.3,2.1-3.2h0v-.2c.9-.9,2-1.6,3.2-2.1s2.5-.7,3.7-.7h10.6c1.9,0,3.5-.8,4.8-2s2-3,2-4.8v-10.6c0-1.3.3-2.6.7-3.7.5-1.2,1.2-2.3,2.1-3.2h0v-.2c.9-.9,2-1.6,3.2-2.1s2.5-.7,3.7-.7h12.6c1.4,0,2.6-.5,3.4-1.4s1.4-2.1,1.4-3.4V4.9c0-1.4-.5-2.6-1.4-3.4s-2.1-1.4-3.4-1.4h0Z"/><path class="cls-5" d="M73.5,27.4h-12.2c-1.9,0-3.5.8-4.8,2s-2,3-2,4.8v10.6c0,1.3-.3,2.6-.7,3.7-.5,1.2-1.2,2.3-2.1,3.2h0v.2c-.9.9-2,1.6-3.2,2.1s-2.5.7-3.7.7h-10.6c-1.9,0-3.5.8-4.8,2s-2,3-2,4.8v12.2c0,1.4.5,2.6,1.4,3.4s2.1,1.4,3.4,1.4h14.2c1.4,0,2.6-.5,3.4-1.4s1.4-2.1,1.4-3.4v-12.6c0-1.3.3-2.6.7-3.7.5-1.2,1.2-2.3,2.1-3.2h0v-.2c.9-.9,2-1.6,3.2-2.1s2.5-.7,3.7-.7h12.6c1.4,0,2.6-.5,3.4-1.4s1.4-2.1,1.4-3.4v-14.2c0-1.4-.5-2.6-1.4-3.4s-2.1-1.4-3.4-1.4h0Z"/><path class="cls-7" d="M4.8,51.2h12.2c1.9,0,3.5-.8,4.8-2s2-3,2-4.8v-10.6c0-1.3.3-2.6.7-3.7.5-1.2,1.2-2.3,2.1-3.2h0v-.2c.9-.9,2-1.6,3.2-2.1s2.5-.7,3.7-.7h10.6c1.9,0,3.5-.8,4.8-2s2-3,2-4.8V4.9c0-1.4-.5-2.6-1.4-3.4s-2.1-1.4-3.4-1.4h-14.2c-1.4,0-2.6.5-3.4,1.4s-1.4,2.1-1.4,3.4v12.6c0,1.3-.3,2.6-.7,3.7-.5,1.2-1.2,2.3-2.1,3.2h0v.2c-.9.9-2,1.6-3.2,2.1s-2.5.7-3.7.7H4.8c-1.4,0-2.6.5-3.4,1.4s-1.4,2.1-1.4,3.4v14.2c0,1.4.5,2.6,1.4,3.4s2.1,1.4,3.4,1.4h0Z"/><path class="cls-4" d="M132.9.1h-40.6c-.5,0-1,.4-1,1v76.5c0,.5.4,1,1,1h11.9c.5,0,1-.4,1-1v-32.1h26.9c.5,0,1-.4,1-1v-11.1c0-.5-.4-1-1-1h-26.9V13.1h27.7c.5,0,1-.4,1-1V1.1c0-.5-.4-1-1-1h0Z"/><path class="cls-4" d="M165.9,22h-5.9c-12,0-18.7,5.9-18.7,19.1v36.4c0,.5.4,1,1,1h11.3c.5,0,1-.4,1-1v-36.8c0-4.9,2-6.8,6.7-6.8h4.6c.5,0,1-.4,1-1v-10.1c0-.5-.4-1-1-1h0v.2Z"/><path class="cls-4" d="M227.7,22h-9.9c-.5,0-1,.4-1,1v5.9c-4.1-5.1-10.9-7.9-18.3-7.9-15.4,0-28.1,11.9-28.1,29.4s12.7,29.3,28.1,29.3,14.2-2.8,18.2-7.9v5.9c0,.5.5,1,1.1,1h9.9c.5,0,1-.4,1-1V23.1c0-.5-.4-1-1-1h0v-.1ZM200.3,67.3c-9.5,0-16.6-6.9-16.6-17s7-17.1,16.6-17.1,16.2,6.3,16.2,17.1-7.2,17-16.2,17Z"/><path class="cls-4" d="M285.6,22h-11.3c-.5,0-1,.4-1,1v32.2c0,7.9-3.6,12.2-10.2,12.2s-10.2-4.2-10.2-12.2V23c0-.5-.4-1-1-1h-11.3c-.5,0-1,.4-1,1v32.7c0,15.1,8.9,24.1,23.5,24.1s23.5-9.1,23.5-24.1V23c0-.5-.4-1-1-1h.2-.2Z"/><path class="cls-4" d="M351.7.1h-11.3c-.5,0-1,.4-1,1v13.9c0,4.2,0,8.6.3,12.6-4.1-4.2-10.4-6.6-17.1-6.6-15.4,0-28.1,11.9-28.1,29.4s12.7,29.3,28.1,29.3,14.2-2.8,18.2-7.9v5.9c0,.5.5,1,1.1,1h9.9c.5,0,1-.4,1-1V1.1c0-.5-.4-1-1-1h-.1ZM324.3,67.3c-9.5,0-16.6-6.9-16.6-17s7-17.1,16.6-17.1,16.2,6.3,16.2,17.1-7.2,17-16.2,17Z"/><path class="cls-4" d="M521.2,22h-6V6.6c0-.4-.3-.8-.7-.9l-11.2-5.5c-.6-.2-1.3.3-1.3.9v20.9h-5.8c-.5,0-1,.4-1,1v10.1c0,.5.4,1,1,1h5.8v44.5h13.3v-44.5h5.9c.5,0,1-.4,1-1v-10.1c0-.5-.4-1-1-1Z"/><path class="cls-4" d="M462.1,20.8c-16.4,0-28.7,12.3-28.7,29.6s11.8,29.4,29.5,29.4,20.1-5.5,25.7-13.1c.3-.4.2-1-.2-1.4l-7.3-5.7c-.4-.3-1-.2-1.4.2-4.1,5.6-9.9,8.6-16.7,8.6-9.7,0-16.4-6.2-17.4-15.2h42.5c.5,0,1-.4,1-1,.9-21.6-12.4-31.4-27.2-31.4h.2ZM446.1,43.7c2-7.1,7.9-11.9,15.8-11.9s13.1,4,14.7,11.9h-30.5Z"/><path class="cls-4" d="M424,.1h-11.2c-.5,0-1,.4-1,1v52.5L378.9.6c-.2-.3-.5-.5-.8-.5h-11.4c-.5,0-1,.4-1,1v58.1h0c0,.8.3,1.4.8,1.9s1.2.8,1.9.8h7.8c.7,0,1.4-.3,1.9-.8s.8-1.1.8-1.8h0V25.1l33,52.9c.2.3.5.5.8.5h11.3c.5,0,1-.4,1-1V1c0-.5-.4-1-1-1h0v.1Z"/><path class="cls-6" d="M378,66.3c-.5-.5-1.2-.8-1.9-.8h-7.8c-.7,0-1.4.3-1.9.8s-.8,1.1-.8,1.9v7.8c0,.8.3,1.4.8,1.9s1.1.8,1.9.8h7.8c.8,0,1.4-.3,1.9-.8s.8-1.1.8-1.9v-7.8c0-.8-.3-1.4-.8-1.9h0Z"/></svg>